<?xml version="1.0" encoding="UTF-8"?>
<svg version="1.1" xmlns="http://www.w3.org/2000/svg" width="1080" height="1080">
<path d="M0 0 C102.96 0 205.92 0 312 0 C324.44805835 37.34417506 319.14734918 79.97446098 302 115 C301.70399902 115.62036133 301.40799805 116.24072266 301.10302734 116.87988281 C296.92943577 125.5517538 291.93114907 133.17894477 285.94848633 140.72265625 C285.4511499 141.35429687 284.95381348 141.9859375 284.44140625 142.63671875 C283.99482666 143.19061279 283.54824707 143.74450684 283.08813477 144.31518555 C281.83371613 146.25746578 281.26626096 147.70052499 281 150 C282.47284763 152.39985731 283.95230877 154.49014643 285.6875 156.6875 C286.71513367 158.0365492 287.74111691 159.38685686 288.765625 160.73828125 C289.30123047 161.43904785 289.83683594 162.13981445 290.38867188 162.86181641 C292.98645555 166.30899662 295.46144165 169.8398751 297.9375 173.375 C298.94788379 174.81122105 299.95830067 176.24741882 300.96875 177.68359375 C301.97922649 179.12235382 302.98964346 180.56115569 304 182 C305.97744884 184.81371247 307.9565907 187.62622268 309.9375 190.4375 C310.43056641 191.13746094 310.92363281 191.83742187 311.43164062 192.55859375 C315.0582027 197.69504743 318.74117962 202.78861515 322.4375 207.875 C326.9409242 214.07537641 331.32106705 220.34714668 335.625 226.6875 C339.93328449 233.0337122 344.34336733 239.27931683 348.90893555 245.44262695 C354.40374203 252.86882063 359.69147749 260.44015641 365 268 C371.11665994 276.70339704 377.25975167 285.38463485 383.5 294 C389.22243947 301.90047175 394.8649577 309.85451987 400.4765625 317.83398438 C403.16904972 321.6621489 405.86548942 325.48752157 408.5625 329.3125 C409.06338135 330.02414307 409.5642627 330.73578613 410.08032227 331.46899414 C412.34407951 334.68002761 414.61541435 337.87675483 417 341 C422.01276104 340.30266026 426.37481025 338.25834369 431 336.3125 C479.68310097 316.47204179 530.86871654 317.68837095 581 331 C581.33668701 330.36763428 581.67337402 329.73526855 582.02026367 329.08374023 C586.22542422 321.27174578 590.72927603 313.65599627 595.3125 306.0625 C596.1052727 304.74543925 596.89791334 303.428299 597.69042969 302.11108398 C605.75443542 288.71697901 613.87121722 275.35485842 622 262 C623.22788266 259.98178183 624.45574789 257.96355306 625.68359375 255.9453125 C628.55416291 251.22773577 631.42601658 246.51094249 634.29833984 241.79443359 C636.61445252 237.99095788 638.92984314 234.1870429 641.24511719 230.38305664 C642.40836348 228.47198604 643.57177304 226.56101482 644.73535156 224.65014648 C647.74237088 219.7115525 650.74648272 214.77122267 653.74609375 209.828125 C654.36419922 208.81041016 654.98230469 207.79269531 655.61914062 206.74414062 C656.78674999 204.82153573 657.9534919 202.89840361 659.11914062 200.97460938 C659.65603516 200.09095703 660.19292969 199.20730469 660.74609375 198.296875 C661.53089111 197.00040039 661.53089111 197.00040039 662.33154297 195.67773438 C663.51941921 193.77129208 664.74695646 191.88931931 666.00048828 190.02539062 C666.65130371 189.05279297 667.30211914 188.08019531 667.97265625 187.078125 C668.574729 186.2005957 669.17680176 185.32306641 669.79711914 184.41894531 C671.19743644 182.13147798 671.19743644 182.13147798 670.81225586 179.8840332 C669.42834399 176.67403985 667.41988802 173.84445313 665.5 170.9375 C642.35768996 134.77033027 634.63191482 91.1879428 643.52001953 49.16796875 C646.98114129 33.5348247 652.43549015 19.27179057 660.13500977 5.22631836 C660.67239273 4.24489365 661.2097757 3.26346893 661.76344299 2.25230408 C662.17150681 1.50904373 662.57957062 0.76578339 663 0 C698.31328126 -0.22884058 733.62641261 -0.40507154 768.94027916 -0.51065329 C773.10846206 -0.52316051 777.2766435 -0.53610372 781.44482422 -0.54931641 C782.68954978 -0.55325106 782.68954978 -0.55325106 783.95942132 -0.55726521 C797.39950339 -0.60079016 810.83915816 -0.67964172 824.27898665 -0.77152796 C838.06740027 -0.86501187 851.85558996 -0.92058093 865.64430749 -0.94088495 C874.15440939 -0.95461331 882.66330361 -0.99798348 891.17303376 -1.07916467 C897.00688817 -1.13198674 902.84011745 -1.1480103 908.6741937 -1.13501377 C912.04222889 -1.1286005 915.40644995 -1.14392937 918.77440262 -1.19205475 C922.42613618 -1.24168594 926.07266855 -1.22990711 929.72451782 -1.20254517 C930.7887244 -1.23167358 931.85293098 -1.26080199 932.94938624 -1.29081309 C935.94903629 -1.22989027 938.19877638 -1.08230996 941 0 C943.73842605 3.03226639 945.3617616 6.28269632 947 10 C947.70414674 11.38234891 948.41162164 12.76301748 949.125 14.140625 C966.74407981 51.87493501 969.39159757 96.48419627 956 136 C949.83899761 152.6497783 941.90623499 167.95093775 931 182 C930.32453125 182.88042969 929.6490625 183.76085937 928.953125 184.66796875 C919.67229831 196.40448863 909.26457482 206.44794513 897 215 C897.58863478 220.0033328 898.66858425 224.58459968 900.27807617 229.36425781 C900.62539417 230.41934288 900.62539417 230.41934288 900.9797287 231.4957428 C901.74527036 233.81674295 902.51910217 236.13488864 903.29296875 238.453125 C903.83670456 240.09648137 904.37989096 241.74001962 904.92256165 243.38372803 C906.07377198 246.86712655 907.2285383 250.34931677 908.38623047 253.83056641 C910.19825626 259.27963741 912.00228831 264.73133211 913.8046875 270.18359375 C915.58953343 275.58185825 917.37462124 280.9800402 919.16244507 286.37731934 C923.31225535 298.9061808 927.4288408 311.44533896 931.5 324 C932.55170978 327.2397047 933.60391292 330.47924902 934.65625 333.71875 C934.91646439 334.52000305 935.17667877 335.3212561 935.44477844 336.14678955 C939.27637606 347.93776583 943.14114666 359.71792348 947 371.5 C952.94400744 389.65057905 958.87362502 407.8057249 964.78173828 425.96801758 C969.46950732 440.37777462 974.17052157 454.78319011 978.875 469.1875 C979.41426117 470.838638 979.41426117 470.838638 979.9644165 472.52313232 C981.97602106 478.68217205 983.98786475 484.84113363 986 491 C986.73822998 491.06469482 987.47645996 491.12938965 988.23706055 491.19604492 C1042.0560668 496.0560668 1042.0560668 496.0560668 1052 506 C1052.09701001 507.57948517 1052.12371638 509.16332819 1052.12304783 510.74578953 C1052.12503888 511.77886567 1052.12702993 512.81194181 1052.12908131 513.87632328 C1052.12616847 515.02513114 1052.12325563 516.17393899 1052.12025452 517.3575592 C1052.12110894 518.56714513 1052.12196337 519.77673105 1052.12284368 521.02297109 C1052.1242119 524.39559899 1052.12106431 527.76816958 1052.11606562 531.14079058 C1052.11176452 534.77202712 1052.1132073 538.40326175 1052.1139679 542.03450012 C1052.11449335 548.33091213 1052.11134434 554.62731381 1052.10573006 560.92372322 C1052.09761792 570.02737842 1052.09500013 579.1310286 1052.09374207 588.23468702 C1052.09155109 603.00322192 1052.08488979 617.7717513 1052.07543945 632.5402832 C1052.0662665 646.89021782 1052.0591851 661.24015094 1052.05493164 675.59008789 C1052.05466892 676.47397586 1052.05440619 677.35786383 1052.05413551 678.26853628 C1052.05283051 682.70255072 1052.05156679 687.13656518 1052.05032361 691.57057965 C1052.03994959 728.38039032 1052.02233005 765.19019473 1052 802 C1050.71892142 802.64811978 1049.43696898 803.29451247 1048.15464783 803.94017029 C1047.44085433 804.3003144 1046.72706083 804.66045851 1045.99163723 805.03151608 C1043.84627281 806.07475373 1041.72143773 806.89711477 1039.44140625 807.59765625 C1038.6515332 807.84040283 1037.86166016 808.08314941 1037.04785156 808.33325195 C1036.22768555 808.57390381 1035.40751953 808.81455566 1034.5625 809.0625 C1033.2645752 809.44764771 1033.2645752 809.44764771 1031.94042969 809.84057617 C1023.72096747 812.20648902 1015.45985117 813.79020647 1007 815 C1005.76121094 815.18433594 1004.52242187 815.36867188 1003.24609375 815.55859375 C975.34515581 818.92524828 945.76199873 814.058983 920.41503906 802.00878906 C917.59995925 800.73049141 915.63396161 799.88409287 912.54296875 800.44921875 C908.82148365 802.71869584 905.31480207 805.21986716 901.8125 807.8125 C900.1953917 808.99489999 898.57820192 810.17718856 896.9609375 811.359375 C896.1369043 811.96458984 895.31287109 812.56980469 894.46386719 813.19335938 C890.63474322 816.00108008 886.78699222 818.78280216 882.9375 821.5625 C882.19346924 822.10044189 881.44943848 822.63838379 880.68286133 823.19262695 C874.94979243 827.33141358 869.17825593 831.41349308 863.39428711 835.48071289 C858.23409805 839.11460686 853.11061851 842.79678074 848 846.5 C842.1943344 850.70685924 836.36478281 854.87595272 830.5 859 C821.60923428 865.25432876 812.80166999 871.6211553 804 878 C794.50317587 884.88264459 784.9884349 891.7342194 775.39428711 898.48071289 C770.23409805 902.11460686 765.11061851 905.79678074 760 909.5 C753.49941517 914.21040657 746.9613612 918.86297608 740.39453125 923.48046875 C735.2343328 927.11454566 730.1107106 930.79671401 725 934.5 C718.50451995 939.20670758 711.97184065 943.85597373 705.40991211 948.46948242 C699.32903281 952.75160272 693.30078549 957.10446011 687.27783203 961.4675293 C681.88975123 965.36741096 676.47233287 969.21886548 671 973 C671.13277344 974.03898438 671.26554688 975.07796875 671.40234375 976.1484375 C671.58079751 977.55728301 671.75917901 978.96613768 671.9375 980.375 C672.06801758 981.39400391 672.06801758 981.39400391 672.20117188 982.43359375 C676.32645747 1015.13030184 674.02772436 1049.09140201 659 1079 C658 1080 658 1080 656.00348896 1080.1241985 C655.11684199 1080.12381878 654.23019502 1080.12343906 653.31667995 1080.12304783 C652.2975374 1080.12503888 651.27839484 1080.12702993 650.22836918 1080.12908131 C649.09512512 1080.12616847 647.96188105 1080.12325563 646.79429626 1080.12025452 C645.60104455 1080.12110894 644.40779284 1080.12196337 643.17838198 1080.12284368 C639.85136008 1080.12421188 636.52439628 1080.12106437 633.19738138 1080.11606562 C629.61522505 1080.11176446 626.03307066 1080.11320731 622.45091248 1080.1139679 C616.23962411 1080.11449334 610.02834621 1080.11134437 603.81706047 1080.10573006 C594.83648162 1080.09761787 585.85590786 1080.09500013 576.87532575 1080.09374207 C562.30644802 1080.0915511 547.73757587 1080.08488982 533.16870117 1080.07543945 C519.01277698 1080.06626648 504.8568543 1080.05918509 490.70092773 1080.05493164 C489.82898775 1080.05466892 488.95704776 1080.05440619 488.05868535 1080.05413551 C483.68460719 1080.05283051 479.31052902 1080.05156679 474.93645084 1080.05032361 C438.62429661 1080.03994961 402.31214874 1080.02233009 366 1080 C365.19908203 1078.42142851 364.40086143 1076.84148829 363.60375977 1075.26098633 C362.93655663 1073.94146721 362.93655663 1073.94146721 362.25587463 1072.59529114 C360.53538417 1069.03986169 359.17289651 1065.4350873 357.9375 1061.6875 C357.68782471 1060.93404297 357.43814941 1060.18058594 357.1809082 1059.40429688 C343.73699778 1017.02722317 349.12267064 972.36851223 368.90429688 933.05102539 C375.19702298 920.97044733 383.1864285 910.46732515 392.5546875 900.62109375 C395.01151435 898.05555337 395.01151435 898.05555337 397.10546875 895.359375 C400.00963276 891.74264291 403.42867897 888.94176123 407 886 C407.928125 885.23429688 408.85625 884.46859375 409.8125 883.6796875 C423.66942886 872.62878673 447.5859893 855 466 855 C466 821.67 466 788.34 466 754 C462.37 753.34 458.74 752.68 455 752 C452.85731884 751.42597569 450.72557179 750.8066091 448.6171875 750.1171875 C447.52132324 749.75890869 446.42545898 749.40062988 445.29638672 749.03149414 C444.1673291 748.64985107 443.03827148 748.26820801 441.875 747.875 C440.09440186 747.27449829 440.09440186 747.27449829 438.27783203 746.66186523 C393.8369751 731.36171165 355.51541835 700.6122855 329.67578125 661.55859375 C329.12684204 660.73194214 328.57790283 659.90529053 328.0123291 659.05358887 C326.67334979 657.03673761 325.33594239 655.01886361 324 653 C311.69465071 655.43435901 299.38941772 657.86930505 287.08431435 660.30490685 C281.36420431 661.43709562 275.64406122 662.56911672 269.92382812 663.70068359 C264.38586894 664.79620763 258.84800211 665.89219735 253.31020355 666.98853302 C251.08664086 667.42869408 248.8630538 667.868732 246.63944244 668.30864716 C233.95464594 670.8185119 221.27297808 673.34304449 208.59667969 675.89550781 C206.26337859 676.3647241 203.9300758 676.83393201 201.59677124 677.3031311 C197.16871527 678.19372313 192.74145898 679.08816191 188.31460571 679.98471069 C186.32483519 680.38528349 184.33503965 680.78573208 182.34521484 681.18603516 C181.43738125 681.37101688 180.52954765 681.55599861 179.59420395 681.74658585 C178.76433094 681.912924 177.93445793 682.07926216 177.07943726 682.25064087 C176.35959845 682.39624262 175.63975964 682.54184437 174.89810753 682.69185829 C173 683 173 683 170 683 C170.03480469 683.82757812 170.06960937 684.65515625 170.10546875 685.5078125 C170.67005283 710.40328171 164.97332365 734.69433103 154 757 C153.69336426 757.63099609 153.38672852 758.26199219 153.07080078 758.91210938 C146.15750578 772.97523514 137.36186214 785.23450468 126.46826172 796.48046875 C124.94484471 798.05708123 123.44374893 799.65331646 121.94140625 801.25 C104.35577847 819.66980388 82.40136735 832.15420262 58.3125 840.125 C57.26666748 840.47119385 56.22083496 840.8173877 55.14331055 841.17407227 C42.61337191 845.2203087 30.19011784 847.52429083 17 848 C16.28924316 848.02723145 15.57848633 848.05446289 14.84619141 848.08251953 C0.8635866 848.54909543 -14.60674752 848.46441749 -28 844 C-28 739.72 -28 635.44 -28 528 C-18.75527707 526.15105541 -10.95688868 524.61633447 -1.81811523 524.14526367 C-0.88813721 524.09732666 0.04184082 524.04938965 1 524 C1.10597881 523.09445059 1.21195763 522.18890118 1.32114792 521.25591087 C2.72422544 509.62690503 4.4868383 498.06824565 6.30957031 486.49853516 C6.64203883 484.37625413 6.97428737 482.25393864 7.30633545 480.1315918 C8.20576704 474.38666542 9.1082204 468.64221738 10.01119328 462.8978467 C10.97275995 456.77702742 11.93138225 450.655747 12.89031982 444.53451538 C14.51289208 434.17950457 16.13711079 423.82475318 17.76269531 413.47021484 C20.59941516 395.40099919 23.43305449 377.33130086 26.26566315 359.26144028 C26.66298848 356.72684466 27.06031463 354.19224917 27.4576416 351.65765381 C27.65366549 350.40715673 27.84968938 349.15665966 28.05165339 347.86826873 C29.23360123 340.32897573 30.41653851 332.78983874 31.60022783 325.25081897 C35.32102123 301.55133443 39.03233534 277.85056415 42.68541765 254.14053559 C43.18254323 250.91495183 43.68034641 247.68947342 44.17840195 244.46403313 C44.4993702 242.38515144 44.82033506 240.30626923 45.14129639 238.22738647 C45.2967964 237.22032461 45.4522964 236.21326275 45.61250854 235.17568386 C46.51056643 229.35595835 47.40350474 223.53547727 48.2923708 217.71434116 C48.83302901 214.18082193 49.37820767 210.64801067 49.92456341 207.11536837 C50.17191256 205.50949024 50.41732747 203.90331265 50.66053486 202.29680204 C52.00791053 193.40147048 53.64190907 184.69422093 56 176 C56.3364232 174.66744294 56.67096702 173.33440106 57 172 C55.33424841 170.47816445 53.66734329 168.9575915 52 167.4375 C51.49742676 166.97786865 50.99485352 166.5182373 50.47705078 166.04467773 C47.66305387 163.47960786 44.80441125 160.99379274 41.875 158.5625 C15.261818 135.30301167 -1.31469454 96.53598758 -5 62 C-5.35371112 56.10912313 -5.33843168 50.21172595 -5.3125 44.3125 C-5.31167419 43.51896118 -5.31084839 42.72542236 -5.30999756 41.90783691 C-5.27494782 27.28803961 -3.5598337 14.23933478 0 0 Z M196.015625 199.83984375 C195.24476563 200.01580078 194.47390625 200.19175781 193.6796875 200.37304688 C192.87789063 200.55931641 192.07609375 200.74558594 191.25 200.9375 C189.67248736 201.30343121 188.09436643 201.66675081 186.515625 202.02734375 C185.81727539 202.18968506 185.11892578 202.35202637 184.39941406 202.51928711 C178.78291201 203.64453055 173.25633855 204.15023083 167.53515625 204.31640625 C166.85698349 204.33718735 166.17881073 204.35796844 165.48008728 204.37937927 C163.34098169 204.44409309 161.20176704 204.5033909 159.0625 204.5625 C157.60090076 204.60575984 156.13931203 204.64937634 154.67773438 204.69335938 C151.1186016 204.79969251 147.55935003 204.9011733 144 205 C143.64215552 207.28097527 143.28431152 209.56195062 142.9264679 211.84292603 C142.810635 212.58127034 142.69480211 213.31961466 142.57545912 214.08033305 C141.900634 218.38182676 141.22581701 222.68332174 140.55101109 226.98481846 C140.25323569 228.88296067 139.9554601 230.78110285 139.65768433 232.679245 C139.50354275 233.66180529 139.34940118 234.64436558 139.19058865 235.65670043 C138.21330437 241.88625031 137.23595573 248.11579009 136.25856495 254.34532326 C132.66183148 277.26973012 129.06615654 300.19430201 125.47350752 323.11934936 C123.82379329 333.64602094 122.1736623 344.1726272 120.5234375 354.69921875 C120.34105144 355.86269781 120.15866539 357.02617688 119.97075248 358.22491288 C115.44865211 387.07144473 110.91412011 415.91592842 106.34442002 444.75496006 C105.443789 450.43923628 104.54457856 456.12373549 103.64646912 461.80841064 C103.52443074 462.5808269 103.40239236 463.35324316 103.27665585 464.14906597 C102.79654467 467.18803998 102.31648103 470.22702148 101.83661449 473.26603413 C100.47721083 481.87500573 99.11269585 490.48312636 97.73914671 499.08985287 C96.79921535 504.98247481 95.86796686 510.87643288 94.9401207 516.7709713 C94.56630348 519.13603987 94.18946611 521.50063343 93.80932999 523.8646946 C93.30040274 527.03156689 92.80203609 530.19992179 92.30639648 533.36889648 C92.08175453 534.74139777 92.08175453 534.74139777 91.85257435 536.14162636 C90.87946872 542.11869972 90.87946872 542.11869972 92 548 C94.36037865 550.03754557 94.36037865 550.03754557 97.375 551.75 C103.6812747 555.72699746 109.33061784 560.17052631 115 565 C115.7321875 565.6084375 116.464375 566.216875 117.21875 566.84375 C123.11075219 571.82929031 128.16632531 577.25529764 132.49609375 583.65625 C132.95008545 584.29876709 133.40407715 584.94128418 133.87182617 585.60327148 C134.7733876 586.88494207 135.64389357 588.18917378 136.4777832 589.51586914 C137.87512383 591.46949703 138.99492449 592.67067709 141 594 C149.21751911 594.50497591 157.961253 591.96737001 165.9609375 590.33203125 C167.32703352 590.05715197 168.69323234 589.78278316 170.05952454 589.50888062 C173.73566053 588.77038635 177.41030286 588.0247004 181.08468246 587.27752304 C184.94082142 586.49457769 188.79824849 585.71802848 192.65551758 584.94067383 C199.12188924 583.63656038 205.58736499 582.32808323 212.05224609 581.01660156 C220.3515396 579.33300975 228.65227752 577.65665424 236.95349121 575.9825592 C244.10059557 574.54115685 251.24704249 573.09650504 258.39337921 571.65130234 C260.68778842 571.18744169 262.98228576 570.72401898 265.27679443 570.26065063 C268.87561273 569.53366168 272.47401555 568.80464951 276.0721035 568.07405472 C278.02375448 567.67820434 279.97577795 567.28419185 281.92781067 566.89022827 C283.08560532 566.65470245 284.24339996 566.41917664 285.4362793 566.17651367 C286.94825142 565.87012215 286.94825142 565.87012215 288.49076843 565.55754089 C291.10807843 565.02115393 291.10807843 565.02115393 294 564 C293.97643433 562.4696814 293.97643433 562.4696814 293.95239258 560.90844727 C293.35712122 518.3778342 297.57774415 477.8865268 318.06054688 439.76123047 C318.95520336 438.08398206 319.8145453 436.38803769 320.671875 434.69140625 C326.70379794 422.95787996 334.17808936 411.68440028 343.05078125 401.89453125 C344.24182784 400.00732859 344.24182784 400.00732859 343.53515625 397.77734375 C341.37156622 393.86306255 338.78651707 390.3387354 336.125 386.75 C334.93926955 385.1308192 333.75439269 383.511013 332.5703125 381.890625 C331.9712207 381.07271484 331.37212891 380.25480469 330.75488281 379.41210938 C328.12925763 375.80315322 325.56287667 372.15365413 323 368.5 C318.90464719 362.67072493 314.75152628 356.88726065 310.5625 351.125 C306.05895673 344.92471347 301.6789299 338.65284883 297.375 332.3125 C293.06671551 325.9662878 288.65663267 319.72068317 284.09106445 313.55737305 C278.59625797 306.13117937 273.30852251 298.55984359 268 291 C261.9264198 282.35790113 255.82655845 273.73837452 249.625 265.1875 C244.41376776 258.00145213 239.30724949 250.74723058 234.2331543 243.46386719 C229.84367886 237.17457857 225.36911275 230.95216331 220.84619141 224.75830078 C217.95132681 220.77331239 215.13856355 216.74821243 212.40234375 212.65234375 C211.81203369 211.7713501 211.22172363 210.89035645 210.61352539 209.98266602 C209.47462507 208.27439551 208.34454089 206.56020665 207.22436523 204.83959961 C206.71462158 204.07526611 206.20487793 203.31093262 205.6796875 202.5234375 C205.23351074 201.84200684 204.78733398 201.16057617 204.32763672 200.45849609 C203.8895166 199.97719238 203.45139648 199.49588867 203 199 C200.4054026 199 198.50975409 199.26033234 196.015625 199.83984375 Z M746 236 C744.38674529 237.99414645 744.38674529 237.99414645 742.91796875 240.66015625 C742.32322754 241.66925049 741.72848633 242.67834473 741.11572266 243.71801758 C740.47940918 244.82169678 739.8430957 245.92537598 739.1875 247.0625 C738.17072299 248.79244504 737.15392757 250.5223799 736.13555908 252.25138855 C735.09157919 254.02595483 734.05185764 255.80297287 733.01220703 257.58007812 C730.10337191 262.52389788 727.11878326 267.41981766 724.125 272.3125 C722.9671616 274.21076289 721.80961537 276.10920402 720.65234375 278.0078125 C720.06179199 278.9762207 719.47124023 279.94462891 718.86279297 280.94238281 C715.46462089 286.52019501 712.07635191 292.10402259 708.6875 297.6875 C707.96761565 298.87345679 707.24772631 300.05941056 706.52783203 301.24536133 C705.07628186 303.63668672 703.62479395 306.02804989 702.17333984 308.41943359 C700.0286071 311.95297362 697.88349588 315.48628376 695.73828125 319.01953125 C695.38789795 319.59665863 695.03751465 320.17378601 694.67651367 320.7684021 C692.91800504 323.66483175 691.15921826 326.56109187 689.39990234 329.45703125 C686.10540718 334.88062258 682.8135818 340.30578112 679.53091431 345.73654175 C677.99526353 348.27672109 676.45813458 350.81600445 674.92089844 353.35522461 C674.19473947 354.55562617 673.46928965 355.75645707 672.74462891 356.95776367 C668.64880267 363.74719798 664.47508459 370.45317547 660 377 C661.9044928 381.18159157 664.78460432 383.92352577 668.0625 387.0625 C682.57351722 401.31264948 694.46716226 418.05583484 704 436 C704.32419922 436.60070312 704.64839844 437.20140625 704.98242188 437.8203125 C722.42524785 470.32585175 730.27984826 505.97204829 730.0625 542.6875 C730.05747144 544.17903494 730.05291095 545.67057154 730.04882812 547.16210938 C730.03793804 550.77477462 730.02074936 554.38737632 730 558 C742.77894515 560.05393901 755.55823584 562.10571336 768.33796024 564.15479851 C774.27340809 565.10654899 780.20873876 566.05901763 786.14379883 567.01318359 C791.88180114 567.93564098 797.62011483 568.85613866 803.35864067 569.7753334 C805.53735771 570.12466169 807.71596565 570.47467125 809.89445686 570.82540512 C821.57859629 572.70605997 833.25591061 574.53199793 845 576 C845.61746094 574.97261719 846.23492188 573.94523437 846.87109375 572.88671875 C852.03761691 564.39070416 857.40084021 556.47388063 864 549 C864.83015625 548.03707031 865.6603125 547.07414062 866.515625 546.08203125 C875.32238462 536.03834888 885.28923669 526.55802745 897 520 C895.50429308 512.56165151 893.31365071 505.48446795 890.921875 498.2890625 C890.30425104 496.41286919 889.68662786 494.53667563 889.06903839 492.66047096 C888.41529245 490.67719735 887.75942794 488.69463632 887.10290527 486.71228027 C885.73252983 482.57427105 884.36813527 478.43430582 883.00488281 474.29394531 C881.62812329 470.11322588 880.25117249 465.93257122 878.87225342 461.75256348 C875.13661471 450.42751633 871.4340232 439.09193623 867.75 427.75 C866.63831623 424.32933101 865.52629232 420.90877273 864.4140625 417.48828125 C864.00167831 416.21989662 864.00167831 416.21989662 863.58096313 414.92588806 C861.44452612 408.3582091 859.29783736 401.79391543 857.1484375 395.23046875 C855.80699243 391.13291039 854.46584012 387.03525636 853.125 382.9375 C852.7917572 381.91909027 852.4585144 380.90068054 852.11517334 379.85140991 C846.9671564 364.10984969 841.90339482 348.34262868 836.875 332.5625 C830.54909125 312.71289356 824.0471831 292.92719243 817.41027832 273.17951965 C814.2554302 263.79238615 811.12818753 254.39604476 808 245 C807.34274429 244.98517075 806.68548859 244.97034149 806.00831604 244.95506287 C787.31322531 244.51651247 769.47207798 242.35881533 751.58203125 236.734375 C748.96647949 235.8632161 748.96647949 235.8632161 746 236 Z M703 646 C702.68328842 646.53316833 702.36657684 647.06633667 702.04026794 647.61566162 C668.16735769 704.56338577 620.94915312 735.11525406 558 754 C558 787.33 558 820.66 558 855 C564.93 857.64 571.86 860.28 579 863 C595.67959786 871.18244423 609.63566739 880.18115036 623 893 C628.40798603 890.04439033 633.34832287 886.70771668 638.3125 883.0625 C639.91141417 881.89837683 641.51037378 880.73431609 643.109375 879.5703125 C644.32657227 878.68134277 644.32657227 878.68134277 645.56835938 877.77441406 C649.39176342 874.98440396 653.22621206 872.20975696 657.0625 869.4375 C657.80669189 868.89939697 658.55088379 868.36129395 659.31762695 867.80688477 C665.05150824 863.66785787 670.82413371 859.58596385 676.60791016 855.51708984 C684.79186072 849.75185476 692.894291 843.87446007 701 838 C710.49682413 831.11735541 720.0115651 824.2657806 729.60571289 817.51928711 C734.76590195 813.88539314 739.88938149 810.20321926 745 806.5 C750.8056656 802.29314076 756.63521719 798.12404728 762.5 794 C771.39076572 787.74567124 780.19833001 781.3788447 789 775 C798.48660609 768.12476075 807.99037608 761.27944498 817.57495117 754.54125977 C823.82196198 750.14272756 830.01695623 745.67378238 836.20117188 741.1875 C837.27334961 740.41019531 837.27334961 740.41019531 838.3671875 739.6171875 C839.31247314 738.93052002 839.31247314 738.93052002 840.27685547 738.22998047 C841.82926318 737.12187193 843.41301282 736.05799145 845 735 C844.37382706 730.697068 842.82003427 727.3726243 840.875 723.5 C832.98586952 707.16117387 828.705917 690.11808152 825.9621582 672.26171875 C825.78199661 671.08955811 825.60183502 669.91739746 825.41621399 668.7097168 C825.27886337 667.81551025 825.14151276 666.92130371 825 666 C823.7223024 665.79368454 822.4446048 665.58736908 821.12818909 665.37480164 C809.02188656 663.41977743 796.91579635 661.46344313 784.80990696 659.50586224 C778.58781249 658.49976165 772.36564698 657.49410509 766.14331055 656.48950195 C760.12604011 655.51798952 754.10896748 654.54526023 748.09202385 653.57172585 C745.80907982 653.20255997 743.52606767 652.83381511 741.24298286 652.46552086 C728.47743079 650.40594732 715.72497738 648.29804651 703 646 Z " fill="#D2ECC8" transform="translate(28,0)"/>
<path d="M0 0 C28.40434303 86.12882198 28.40434303 86.12882198 37.95089722 115.54005432 C38.20686676 116.32863327 38.4628363 117.11721222 38.7265625 117.9296875 C38.98051788 118.71218369 39.23447327 119.49467987 39.49612427 120.30088806 C43.30897932 132.04102623 47.15789494 143.7694109 51 155.5 C56.94405178 173.65056447 62.87362505 191.80572499 68.78173828 209.96801758 C73.46950732 224.37777462 78.17052157 238.78319011 82.875 253.1875 C83.41426117 254.838638 83.41426117 254.838638 83.9644165 256.52313232 C85.97602106 262.68217205 87.98786475 268.84113363 90 275 C90.73822998 275.06469482 91.47645996 275.12938965 92.23706055 275.19604492 C146.0560668 280.0560668 146.0560668 280.0560668 156 290 C156.09701001 291.57948517 156.12371638 293.16332819 156.12304783 294.74578953 C156.12503888 295.77886567 156.12702993 296.81194181 156.12908131 297.87632328 C156.12616847 299.02513114 156.12325563 300.17393899 156.12025452 301.3575592 C156.12153615 303.17193809 156.12153615 303.17193809 156.12284368 305.02297109 C156.1242119 308.39559899 156.12106431 311.76816958 156.11606562 315.14079058 C156.11176452 318.77202712 156.1132073 322.40326175 156.1139679 326.03450012 C156.11449335 332.33091213 156.11134434 338.62731381 156.10573006 344.92372322 C156.09761792 354.02737842 156.09500013 363.1310286 156.09374207 372.23468702 C156.09155109 387.00322192 156.08488979 401.7717513 156.07543945 416.5402832 C156.0662665 430.89021782 156.0591851 445.24015094 156.05493164 459.59008789 C156.05453756 460.91591984 156.05453756 460.91591984 156.05413551 462.26853628 C156.05283051 466.70255072 156.05156679 471.13656518 156.05032361 475.57057965 C156.03994959 512.38039032 156.02233005 549.19019473 156 586 C154.71892142 586.64811978 153.43696898 587.29451247 152.15464783 587.94017029 C151.08395758 588.48038645 151.08395758 588.48038645 149.99163723 589.03151608 C147.84627281 590.07475373 145.72143773 590.89711477 143.44140625 591.59765625 C142.25659668 591.96177612 142.25659668 591.96177612 141.04785156 592.33325195 C139.81760254 592.69422974 139.81760254 592.69422974 138.5625 593.0625 C137.2645752 593.44764771 137.2645752 593.44764771 135.94042969 593.84057617 C127.72096747 596.20648902 119.45985117 597.79020647 111 599 C109.14181641 599.27650391 109.14181641 599.27650391 107.24609375 599.55859375 C79.34515581 602.92524828 49.76199873 598.058983 24.41503906 586.00878906 C21.59995925 584.73049141 19.63396161 583.88409287 16.54296875 584.44921875 C12.82148365 586.71869584 9.31480207 589.21986716 5.8125 591.8125 C4.1953917 592.99489999 2.57820192 594.17718856 0.9609375 595.359375 C-0.2751123 596.26719727 -0.2751123 596.26719727 -1.53613281 597.19335938 C-5.36525678 600.00108008 -9.21300778 602.78280216 -13.0625 605.5625 C-13.80653076 606.10044189 -14.55056152 606.63838379 -15.31713867 607.19262695 C-21.05020757 611.33141358 -26.82174407 615.41349308 -32.60571289 619.48071289 C-37.76590195 623.11460686 -42.88938149 626.79678074 -48 630.5 C-53.8056656 634.70685924 -59.63521719 638.87595272 -65.5 643 C-74.39076572 649.25432876 -83.19833001 655.6211553 -92 662 C-101.49682413 668.88264459 -111.0115651 675.7342194 -120.60571289 682.48071289 C-125.76590195 686.11460686 -130.88938149 689.79678074 -136 693.5 C-142.50058483 698.21040657 -149.0386388 702.86297608 -155.60546875 707.48046875 C-160.7656672 711.11454566 -165.8892894 714.79671401 -171 718.5 C-177.49548005 723.20670758 -184.02815935 727.85597373 -190.59008789 732.46948242 C-195.90207191 736.21015108 -201.17533473 740.00213636 -206.4375 743.8125 C-209.29114073 745.87572851 -212.14549004 747.93797434 -215 750 C-215.85489014 750.61875 -215.85489014 750.61875 -216.72705078 751.25 C-218.14778462 752.27581347 -219.57362725 753.2945419 -221 754.3125 C-221.7425 754.84488281 -222.485 755.37726562 -223.25 755.92578125 C-225 757 -225 757 -227 757 C-227.1959375 756.13761719 -227.391875 755.27523437 -227.59375 754.38671875 C-234.81617697 724.905519 -250.76033976 700.28515782 -271 678 C-269.63984311 674.81507606 -268.2870616 673.17418105 -265.46484375 671.1875 C-264.74683594 670.67574219 -264.02882813 670.16398438 -263.2890625 669.63671875 C-262.51304687 669.09660156 -261.73703125 668.55648437 -260.9375 668 C-260.13183594 667.42894531 -259.32617188 666.85789062 -258.49609375 666.26953125 C-256.00301131 664.50489634 -253.50209988 662.7518175 -251 661 C-249.55286031 659.9799112 -248.10621981 658.95911373 -246.66015625 657.9375 C-244.57394458 656.4639041 -242.48725659 654.99103565 -240.39819336 653.52148438 C-235.23615063 649.8876349 -230.11182081 646.20409047 -225 642.5 C-219.1943344 638.29314076 -213.36478281 634.12404728 -207.5 630 C-198.60923428 623.74567124 -189.80166999 617.3788447 -181 611 C-171.50233199 604.11674383 -161.98567967 597.26615918 -152.39208984 590.51708984 C-144.20813928 584.75185476 -136.105709 578.87446007 -128 573 C-118.50317587 566.11735541 -108.9884349 559.2657806 -99.39428711 552.51928711 C-94.23409633 548.88539193 -89.1106992 545.20311003 -84 541.5 C-77.9408252 537.11125291 -71.86108551 532.75372123 -65.75 528.4375 C-65.0590625 527.94894531 -64.368125 527.46039062 -63.65625 526.95703125 C-59.8082198 524.24523044 -55.92911968 521.59297494 -52 519 C-52.62617294 514.697068 -54.17996573 511.3726243 -56.125 507.5 C-62.90195757 493.46454556 -67.64629621 478.40770712 -70 463 C-70.18433594 461.86175781 -70.36867188 460.72351563 -70.55859375 459.55078125 C-71.35699766 452.90669292 -71.19867515 446.18245553 -71.1875 439.5 C-71.18656342 438.78180084 -71.18562683 438.06360168 -71.18466187 437.32363892 C-71.05791209 392.60469468 -53.59572059 352.58477645 -22 321 C-4.55263158 304 -4.55263158 304 1 304 C0.74294281 303.21852097 0.48588562 302.43704193 0.22103882 301.63188171 C-22.21076555 233.43343726 -22.21076555 233.43343726 -31.88015747 203.66900635 C-32.14786957 202.844953 -32.41558167 202.02089966 -32.69140625 201.171875 C-32.95694305 200.3544281 -33.22247986 199.5369812 -33.49606323 198.69476318 C-35.6019746 192.21553449 -37.71949607 185.74014206 -39.83984375 179.265625 C-47.01654268 157.34466629 -54.12262982 135.40378233 -61.12414551 113.4262085 C-66.38465467 96.92469606 -71.78174518 80.47289068 -77.30908203 64.05883789 C-80.06473091 55.86902124 -82.7768822 47.6674564 -85.3984375 39.43359375 C-85.66008698 38.61754166 -85.92173645 37.80148956 -86.1913147 36.96070862 C-88 31.23736869 -88 31.23736869 -88 29 C-86.73027344 28.89042969 -85.46054687 28.78085938 -84.15234375 28.66796875 C-56.19612277 26.15007916 -28.07550046 19.05322753 -5.03125 2.16796875 C-2 0 -2 0 0 0 Z " fill="#D2ECC8" transform="translate(924,216)"/>
<path d="M0 0 C102.96 0 205.92 0 312 0 C324.44805835 37.34417506 319.14734918 79.97446098 302 115 C301.70399902 115.62036133 301.40799805 116.24072266 301.10302734 116.87988281 C294.05965883 131.51456422 284.2225436 144.30512713 273 156 C272.11054688 156.95261719 271.22109375 157.90523437 270.3046875 158.88671875 C245.60323163 184.88295831 207.54817656 203.9849841 171.35961914 205.11352539 C170.09754639 205.10828857 168.83547363 205.10305176 167.53515625 205.09765625 C166.51789711 205.09553383 166.51789711 205.09553383 165.48008728 205.09336853 C163.34084422 205.08782745 161.20171075 205.07528653 159.0625 205.0625 C157.60091298 205.05747736 156.13932431 205.0529158 154.67773438 205.04882812 C151.11845474 205.03787745 147.55923809 205.02065445 144 205 C143.95096747 205.78254434 143.90193495 206.56508867 143.85141659 207.37134647 C143.2928545 215.47548226 142.29139212 223.41949107 141.00415039 231.43725586 C140.80140755 232.72664692 140.5986647 234.01603798 140.38977814 235.3445015 C139.83248536 238.8880693 139.26890978 242.43061235 138.70427442 245.9730165 C138.09317571 249.81459792 137.48821927 253.65714705 136.8825531 257.49958801 C135.83228204 264.15766301 134.77846569 270.81516861 133.72216797 277.47229004 C132.04951316 288.01429052 130.38342594 298.55732294 128.71875 309.10058594 C128.43390969 310.90450497 128.14906815 312.70842381 127.86422539 314.51234245 C127.43204515 317.24936224 126.99987254 319.98638322 126.56773365 322.72340953 C125.68568418 328.30972843 124.80303777 333.89595264 123.91996229 339.48210943 C119.60245518 366.79492375 115.31489826 394.11232587 111.04756618 421.43302274 C110.44168428 425.31177216 109.83556815 429.19048496 109.2294516 433.06919771 C106.59507744 449.92757449 103.96182532 466.78612494 101.33323604 483.64540476 C100.24207644 490.64290362 99.14905895 497.64011077 98.05463189 504.63709933 C97.29956272 509.46508084 96.5466731 514.29339505 95.79551452 519.12198645 C95.339621 522.0490102 94.88158567 524.9756956 94.42289913 527.90228283 C94.11236765 529.88773841 93.80441451 531.87359672 93.49653721 533.8594656 C93.31257861 535.03020658 93.12862001 536.20094755 92.93908691 537.40716553 C92.78074623 538.42202908 92.62240555 539.43689262 92.45926666 540.48250961 C92 543 92 543 91 546 C87.00916099 544.75723873 83.43390851 543.27832837 79.75 541.3125 C74.50410812 538.64031227 69.17466501 536.38096512 63.6875 534.25 C62.93500977 533.95649658 62.18251953 533.66299316 61.40722656 533.3605957 C53.00052785 530.14348112 44.69594905 528.30658251 35.8125 526.9375 C34.67441895 526.7612207 33.53633789 526.58494141 32.36376953 526.40332031 C22.251071 524.9075514 12.21252586 524.23053106 2 524 C1.80722472 517.04811457 2.32806669 510.48600935 3.43780518 503.62808228 C3.59268048 502.63185518 3.74755579 501.63562808 3.90712428 500.60921228 C4.42464187 497.29249138 4.95303487 493.97759917 5.48144531 490.66259766 C5.85671565 488.27225371 6.23131114 485.88180374 6.60528564 483.49125671 C7.41264931 478.34034397 8.22470542 473.19019449 9.04105377 468.04069901 C10.23443316 460.51282553 11.41917781 452.98361205 12.60200009 445.45407347 C14.5388712 433.12598253 16.48261489 420.79898542 18.43066406 408.47265625 C20.29231111 396.69294404 22.15085534 384.91274992 24.00488281 373.13183594 C24.11767938 372.41511724 24.23047595 371.69839854 24.3466906 370.95996109 C24.91415811 367.3541136 25.48156315 363.74825629 26.04893398 360.14239359 C28.93274213 341.8148662 31.81831379 323.48762142 34.71374512 305.16192627 C34.82091234 304.48361371 34.92807957 303.80530115 35.03849429 303.10643366 C35.57266061 299.72545683 36.10685522 296.34448447 36.64106083 292.96351385 C36.74533787 292.30354751 36.84961492 291.64358116 36.95705187 290.96361583 C37.26991159 288.98358667 37.58279309 287.00356095 37.89567471 285.02353525 C40.4211197 269.03903363 42.93378338 253.05263823 45.42400408 237.06261086 C46.2680889 231.64590058 47.11510722 226.22964811 47.96211028 220.81339347 C48.7076904 216.04285336 49.44805792 211.27154671 50.18396282 206.49950504 C50.62146504 203.67070684 51.06402621 200.84271788 51.50806332 198.01493883 C51.79638467 196.1687162 52.07842456 194.32151583 52.36011505 192.47426987 C53.46206836 185.4955646 54.98460151 178.77246646 57 172 C55.33424841 170.47816445 53.66734329 168.9575915 52 167.4375 C51.24614014 166.74805298 51.24614014 166.74805298 50.47705078 166.04467773 C47.66305387 163.47960786 44.80441125 160.99379274 41.875 158.5625 C15.261818 135.30301167 -1.31469454 96.53598758 -5 62 C-5.35371112 56.10912313 -5.33843168 50.21172595 -5.3125 44.3125 C-5.31167419 43.51896118 -5.31084839 42.72542236 -5.30999756 41.90783691 C-5.27494782 27.28803961 -3.5598337 14.23933478 0 0 Z " fill="#D2ECC8" transform="translate(28,0)"/>
<path d="M0 0 C35.31328126 -0.22884058 70.62641261 -0.40507154 105.94027916 -0.51065329 C110.10846206 -0.52316051 114.2766435 -0.53610372 118.44482422 -0.54931641 C119.68954978 -0.55325106 119.68954978 -0.55325106 120.95942132 -0.55726521 C134.39950339 -0.60079016 147.83915816 -0.67964172 161.27898665 -0.77152796 C175.06740027 -0.86501187 188.85558996 -0.92058093 202.64430749 -0.94088495 C211.15440939 -0.95461331 219.66330361 -0.99798348 228.17303376 -1.07916467 C234.00688817 -1.13198674 239.84011745 -1.1480103 245.6741937 -1.13501377 C249.04222889 -1.1286005 252.40644995 -1.14392937 255.77440262 -1.19205475 C259.42613618 -1.24168594 263.07266855 -1.22990711 266.72451782 -1.20254517 C267.7887244 -1.23167358 268.85293098 -1.26080199 269.94938624 -1.29081309 C272.94903629 -1.22989027 275.19877638 -1.08230996 278 0 C280.73842605 3.03226639 282.3617616 6.28269632 284 10 C284.70414674 11.38234891 285.41162164 12.76301748 286.125 14.140625 C303.74407981 51.87493501 306.39159757 96.48419627 293 136 C286.83899761 152.6497783 278.90623499 167.95093775 268 182 C267.32453125 182.88042969 266.6490625 183.76085937 265.953125 184.66796875 C240.71218524 216.58762432 202.13104627 239.66741345 161.47753906 244.68652344 C141.01701852 246.53090061 119.9314218 246.1989817 100 241 C99.16162598 240.79101074 98.32325195 240.58202148 97.45947266 240.36669922 C73.96787543 234.39653316 52.16869643 223.07849241 34 207 C33.51047852 206.57074219 33.02095703 206.14148438 32.51660156 205.69921875 C1.63233782 178.51636645 -19.50926478 139.81761919 -22.4375 98.4140625 C-24.37286621 65.34789101 -18.88572613 34.45136253 -2.86499023 5.22631836 C-2.32760727 4.24489365 -1.7902243 3.26346893 -1.23655701 2.25230408 C-0.82849319 1.50904373 -0.42042938 0.76578339 0 0 Z " fill="#D3ECC8" transform="translate(691,0)"/>
<path d="M0 0 C3.04399586 2.64020049 5.98613167 5.37128045 8.890625 8.1640625 C10.78536 10.21884149 10.78536 10.21884149 13 10 C14.29041914 11.44764262 15.50767134 12.96089149 16.6875 14.5 C19.18108603 17.70667987 21.69331721 20.81826317 24.4375 23.8125 C52.22010222 55.3204966 63.85114456 97.67148374 62 139 C60.82360059 155.31046526 58.30268105 185.69731895 46 198 C44.44136748 198.09695905 42.87832522 198.12371663 41.31667995 198.12304783 C40.2975374 198.12503888 39.27839484 198.12702993 38.22836918 198.12908131 C37.09512512 198.12616847 35.96188105 198.12325563 34.79429626 198.12025452 C33.60104455 198.12110894 32.40779284 198.12196337 31.17838198 198.12284368 C27.85136008 198.12421188 24.52439628 198.12106437 21.19738138 198.11606562 C17.61522505 198.11176446 14.03307066 198.11320731 10.45091248 198.1139679 C4.23962411 198.11449334 -1.97165379 198.11134437 -8.18293953 198.10573006 C-17.16351838 198.09761787 -26.14409214 198.09500013 -35.12467425 198.09374207 C-49.69355198 198.0915511 -64.26242413 198.08488982 -78.83129883 198.07543945 C-92.98722302 198.06626648 -107.1431457 198.05918509 -121.29907227 198.05493164 C-122.17101225 198.05466892 -123.04295224 198.05440619 -123.94131465 198.05413551 C-128.31539281 198.05283051 -132.68947098 198.05156679 -137.06354916 198.05032361 C-173.37570339 198.03994961 -209.68785126 198.02233009 -246 198 C-246.80091797 196.42142851 -247.59913857 194.84148829 -248.39624023 193.26098633 C-248.84104233 192.38130692 -249.28584442 191.5016275 -249.74412537 190.59529114 C-251.46461583 187.03986169 -252.82710349 183.4350873 -254.0625 179.6875 C-254.31217529 178.93404297 -254.56185059 178.18058594 -254.8190918 177.40429688 C-268.26300222 135.02722317 -262.87732936 90.36851223 -243.09570312 51.05102539 C-236.80297702 38.97044733 -228.8135715 28.46732515 -219.4453125 18.62109375 C-216.98848565 16.05555337 -216.98848565 16.05555337 -214.89453125 13.359375 C-211.99036724 9.74264291 -208.57132103 6.94176123 -205 4 C-204.071875 3.23429688 -203.14375 2.46859375 -202.1875 1.6796875 C-144.4244609 -44.38633618 -58.23662283 -47.69068309 0 0 Z " fill="#D3ECC8" transform="translate(640,882)"/>
<path d="M0 0 C0.33 1.32 0.66 2.64 1 4 C2.71316406 3.93039062 2.71316406 3.93039062 4.4609375 3.859375 C14.71009864 3.58132611 24.54903201 4.24694807 34.6875 5.8125 C35.77272949 5.97782227 36.85795898 6.14314453 37.97607422 6.31347656 C44.23985251 7.34115037 50.04010457 8.84015517 56 11 C56.97066406 11.29261719 57.94132812 11.58523438 58.94140625 11.88671875 C90.54683466 21.5426246 118.94574597 43.95680802 138.0546875 70.53125 C139.93605674 73.18142167 139.93605674 73.18142167 143 75 C143.70318237 76.6515922 144.36232393 78.32202758 145 80 C145.97971287 81.70941603 146.96173346 83.41770162 147.96972656 85.1105957 C161.79092357 108.46234339 169.39981386 134.81265785 169 162 C169.99 162.33 170.98 162.66 172 163 C171.01 163 170.02 163 169 163 C169.03480469 163.82757812 169.06960937 164.65515625 169.10546875 165.5078125 C169.67005283 190.40328171 163.97332365 214.69433103 153 237 C152.69336426 237.63099609 152.38672852 238.26199219 152.07080078 238.91210938 C145.15750578 252.97523514 136.36186214 265.23450468 125.46826172 276.48046875 C123.94484471 278.05708123 122.44374893 279.65331646 120.94140625 281.25 C103.35577847 299.66980388 81.40136735 312.15420262 57.3125 320.125 C56.26666748 320.47119385 55.22083496 320.8173877 54.14331055 321.17407227 C41.61337191 325.2203087 29.19011784 327.52429083 16 328 C15.28924316 328.02723145 14.57848633 328.05446289 13.84619141 328.08251953 C-0.1364134 328.54909543 -15.60674752 328.46441749 -29 324 C-29 219.72 -29 115.44 -29 8 C-12.125 4.625 -12.125 4.625 -6.0625 4.3125 C-4.89847656 4.24675781 -3.73445313 4.18101562 -2.53515625 4.11328125 C-1.28025391 4.05720703 -1.28025391 4.05720703 0 4 C0 2.68 0 1.36 0 0 Z " fill="#D2ECC8" transform="translate(29,520)"/>
<path d="M0 0 C4.42943153 1.51533184 7.96108768 3.95177323 11.75 6.625 C33.8966568 21.75516583 59.67203659 28.68008651 86 32 C85.44213772 40.90331387 84.41785688 49.63178764 83.00415039 58.43725586 C82.70003613 60.37134245 82.70003613 60.37134245 82.38977814 62.3445015 C81.83248536 65.8880693 81.26890978 69.43061235 80.70427442 72.9730165 C80.09317571 76.81459792 79.48821927 80.65714705 78.8825531 84.49958801 C77.83228204 91.15766301 76.77846569 97.81516861 75.72216797 104.47229004 C74.04951316 115.01429052 72.38342594 125.55732294 70.71875 136.10058594 C70.43390969 137.90450497 70.14906815 139.70842381 69.86422539 141.51234245 C69.43204515 144.24936224 68.99987254 146.98638322 68.56773365 149.72340953 C67.68568418 155.30972843 66.80303777 160.89595264 65.91996229 166.48210943 C61.60245518 193.79492375 57.31489826 221.11232587 53.04756618 248.43302274 C52.44168428 252.31177216 51.83556815 256.19048496 51.2294516 260.06919771 C48.59507744 276.92757449 45.96182532 293.78612494 43.33323604 310.64540476 C42.24207644 317.64290362 41.14905895 324.64011077 40.05463189 331.63709933 C39.29956272 336.46508084 38.5466731 341.29339505 37.79551452 346.12198645 C37.339621 349.0490102 36.88158567 351.9756956 36.42289913 354.90228283 C36.11236765 356.88773841 35.80441451 358.87359672 35.49653721 360.8594656 C35.31257861 362.03020658 35.12862001 363.20094755 34.93908691 364.40716553 C34.78074623 365.42202908 34.62240555 366.43689262 34.45926666 367.48250961 C34 370 34 370 33 373 C29.00916099 371.75723873 25.43390851 370.27832837 21.75 368.3125 C16.50410812 365.64031227 11.17466501 363.38096512 5.6875 361.25 C4.93500977 360.95649658 4.18251953 360.66299316 3.40722656 360.3605957 C-4.99947215 357.14348112 -13.30405095 355.30658251 -22.1875 353.9375 C-23.32558105 353.7612207 -24.46366211 353.58494141 -25.63623047 353.40332031 C-35.748929 351.9075514 -45.78747414 351.23053106 -56 351 C-56.19277528 344.04811457 -55.67193331 337.48600935 -54.56219482 330.62808228 C-54.40731952 329.63185518 -54.25244421 328.63562808 -54.09287572 327.60921228 C-53.57535813 324.29249138 -53.04696513 320.97759917 -52.51855469 317.66259766 C-52.14328435 315.27225371 -51.76868886 312.88180374 -51.39471436 310.49125671 C-50.58735069 305.34034397 -49.77529458 300.19019449 -48.95894623 295.04069901 C-47.76556684 287.51282553 -46.58082219 279.98361205 -45.39799991 272.45407347 C-43.4611288 260.12598253 -41.51738511 247.79898542 -39.56933594 235.47265625 C-37.70768889 223.69294404 -35.84914644 211.91274964 -33.99511719 200.13183594 C-33.88232062 199.41511983 -33.76952405 198.69840373 -33.6533094 197.95996895 C-33.08584087 194.35413045 -32.51843522 190.74828206 -31.95106602 187.14242792 C-29.06749277 168.81631636 -26.18225734 150.49047286 -23.28625488 132.1663208 C-23.07021805 130.79927025 -22.85418236 129.43221953 -22.63814783 128.06516862 C-22.21174666 125.36698569 -21.78534289 122.66880316 -21.35893917 119.97062063 C-21.25466213 119.31077183 -21.15038508 118.65092303 -21.04294813 117.97107881 C-20.73009059 115.99141123 -20.41720801 114.0117476 -20.10432529 112.03208399 C-17.57496351 96.02490413 -15.06171046 80.01537057 -12.57599592 64.00135446 C-11.7323737 58.57044972 -10.88511813 53.14011041 -10.03788972 47.70976722 C-9.29104175 42.91919968 -8.55075324 38.12768465 -7.81603718 33.33524227 C-7.37947057 30.49779957 -6.93663003 27.66136363 -6.49193668 24.82518435 C-6.20255055 22.9668433 -5.92101607 21.10728462 -5.63988495 19.24767685 C-3.08869518 3.08869518 -3.08869518 3.08869518 0 0 Z " fill="#7597F3" transform="translate(86,173)"/>
<path d="M0 0 C28.40434303 86.12882198 28.40434303 86.12882198 37.95089722 115.54005432 C38.20686676 116.32863327 38.4628363 117.11721222 38.7265625 117.9296875 C38.98051788 118.71218369 39.23447327 119.49467987 39.49612427 120.30088806 C43.30897934 132.04102629 47.15790904 143.76940623 51 155.5 C56.96789638 173.72365175 62.92969013 191.94923375 68.85205078 210.18774414 C71.59272114 218.62503189 74.34499374 227.0582051 77.12428284 235.48286438 C78.53543139 239.76162094 79.94233704 244.04176768 81.34902954 248.32199097 C82.02785596 250.38334646 82.70879317 252.44400815 83.39193726 254.50393677 C84.33690047 257.35377532 85.27466192 260.20589135 86.2109375 263.05859375 C86.49454636 263.90747162 86.77815521 264.75634949 87.07035828 265.63095093 C87.32606094 266.41459015 87.58176361 267.19822937 87.84521484 268.00561523 C88.06946136 268.68422104 88.29370789 269.36282684 88.52474976 270.06199646 C89 272 89 272 89 276 C88.18402344 276.02578125 87.36804688 276.0515625 86.52734375 276.078125 C58.3794178 277.42579501 32.58483865 284.94325439 8.11450195 298.89013672 C5.79891415 300.10554627 3.43248531 301.04396034 1 302 C-2.03022131 294.71760843 -4.62155622 287.34850307 -7.0546875 279.84765625 C-7.43260941 278.69159882 -7.81053131 277.53554138 -8.1999054 276.3444519 C-9.21709209 273.23070941 -10.231365 270.11603742 -11.24425888 267.00089645 C-12.31058629 263.72385425 -13.38073988 260.44806179 -14.45043945 257.17211914 C-16.58322724 250.63833081 -18.71172244 244.10315217 -20.83880615 237.56750488 C-22.19725906 233.39396624 -23.55706435 229.22086931 -24.91702271 225.04782104 C-26.90147172 218.95838104 -28.88506934 212.8686666 -30.86523438 206.77783203 C-33.85289212 197.58848005 -36.84825858 188.40172399 -39.85546875 179.21875 C-41.1956165 175.12509945 -42.53546247 171.03135027 -43.875 166.9375 C-44.20815216 165.91936218 -44.54130432 164.90122437 -44.884552 163.85223389 C-50.37371762 147.06752185 -55.76372962 130.25241317 -61.12414551 113.4262085 C-66.38465467 96.92469606 -71.78174518 80.47289068 -77.30908203 64.05883789 C-80.06473091 55.86902124 -82.7768822 47.6674564 -85.3984375 39.43359375 C-85.79091171 38.20951561 -85.79091171 38.20951561 -86.1913147 36.96070862 C-88 31.23736869 -88 31.23736869 -88 29 C-86.73027344 28.89042969 -85.46054687 28.78085938 -84.15234375 28.66796875 C-56.19612277 26.15007916 -28.07550046 19.05322753 -5.03125 2.16796875 C-2 0 -2 0 0 0 Z " fill="#749CF2" transform="translate(924,216)"/>
<path d="M0 0 C3.89445233 1.48481298 5.22759172 3.52462461 7.3125 7.0625 C13.43485195 17.02911945 20.9320371 25.56687846 29 34 C29.59611084 34.62817627 30.19222168 35.25635254 30.80639648 35.90356445 C35.58505919 40.82575904 40.64319246 45.03120466 46.1875 49.0625 C47.42173706 49.96766357 47.42173706 49.96766357 48.6809082 50.89111328 C55.16953357 55.57161971 61.78023002 59.55213857 69 63 C67.85600003 66.43199991 67.22662783 66.798039 64.30859375 68.71484375 C63.53708984 69.22982422 62.76558594 69.74480469 61.97070312 70.27539062 C61.13474609 70.82388672 60.29878906 71.37238281 59.4375 71.9375 C53.16094487 76.13597471 46.99672085 80.41021097 41 85 C34.5080888 89.95256676 27.83084358 94.57337857 21.06640625 99.14453125 C15.93467138 102.62945331 10.93223217 106.23880082 6 110 C0.28698605 114.3566042 -5.54736679 118.4772241 -11.5 122.5 C-18.17205012 127.01084233 -24.67455941 131.68063047 -31.08642578 136.55297852 C-36.47413866 140.63703933 -41.96849275 144.54997663 -47.50439453 148.42993164 C-52.70248968 152.07546432 -57.85990837 155.77318427 -63 159.5 C-69.50043428 164.21061167 -76.03864183 168.86297821 -82.60546875 173.48046875 C-87.7656672 177.11454566 -92.8892894 180.79671401 -98 184.5 C-103.8056643 188.7068583 -109.6351578 192.87603835 -115.5 197 C-122.19699483 201.70978606 -128.84587258 206.48272228 -135.47827148 211.28295898 C-141.67417421 215.76723433 -147.88540193 220.22883187 -154.11962891 224.65966797 C-156.27507449 226.19607361 -158.42439074 227.74090103 -160.57421875 229.28515625 C-162.13265954 230.39865161 -163.69125127 231.51193576 -165.25 232.625 C-165.99000244 233.15875244 -166.73000488 233.69250488 -167.49243164 234.24243164 C-168.18071045 234.73219482 -168.86898926 235.22195801 -169.578125 235.7265625 C-170.49706543 236.38519287 -170.49706543 236.38519287 -171.43457031 237.05712891 C-173 238 -173 238 -175 238 C-175.1959375 237.13761719 -175.391875 236.27523437 -175.59375 235.38671875 C-182.81617697 205.905519 -198.76033976 181.28515782 -219 159 C-217.63984311 155.81507606 -216.2870616 154.17418105 -213.46484375 152.1875 C-212.74683594 151.67574219 -212.02882813 151.16398438 -211.2890625 150.63671875 C-210.51304687 150.09660156 -209.73703125 149.55648437 -208.9375 149 C-208.13183594 148.42894531 -207.32617188 147.85789062 -206.49609375 147.26953125 C-204.00301131 145.50489634 -201.50209988 143.7518175 -199 142 C-197.55286031 140.9799112 -196.10621981 139.95911373 -194.66015625 138.9375 C-192.57394458 137.4639041 -190.48725659 135.99103565 -188.39819336 134.52148438 C-183.23615063 130.8876349 -178.11182081 127.20409047 -173 123.5 C-167.1943344 119.29314076 -161.36478281 115.12404728 -155.5 111 C-146.60923428 104.74567124 -137.80166999 98.3788447 -129 92 C-119.50233199 85.11674383 -109.98567967 78.26615918 -100.39208984 71.51708984 C-92.20813928 65.75185476 -84.105709 59.87446007 -76 54 C-66.50317587 47.11735541 -56.9884349 40.2657806 -47.39428711 33.51928711 C-42.23409633 29.88539193 -37.1106992 26.20311003 -32 22.5 C-25.9408252 18.11125291 -19.86108551 13.75372123 -13.75 9.4375 C-13.0590625 8.94894531 -12.368125 8.46039062 -11.65625 7.95703125 C-7.8082198 5.24523044 -3.92911968 2.59297494 0 0 Z " fill="#72A0F1" transform="translate(872,735)"/>
<path d="M0 0 C4.24847369 3.98343129 7.57506945 8.31870192 10.9375 13.0625 C11.49888672 13.84689453 12.06027344 14.63128906 12.63867188 15.43945312 C17.39626878 22.10430371 22.08471357 28.81775804 26.76733398 35.53540039 C30.62547439 41.06282064 34.53933641 46.5456555 38.5 52 C43.67192567 59.12240859 48.73591432 66.31466856 53.76733398 73.53686523 C57.64182368 79.08820441 61.57958946 84.58855424 65.5625 90.0625 C70.02588538 96.19948557 74.3632132 102.40892978 78.625 108.6875 C82.93383041 115.03455099 87.34370698 121.28161058 91.91113281 127.44482422 C95.29890021 132.0218621 98.60225615 136.65261174 101.875 141.3125 C105.9961143 147.17970222 110.16377668 153.00964827 114.375 158.8125 C119.80713445 166.30108535 125.1334627 173.86001234 130.41943359 181.45239258 C130.97453613 182.2492749 131.52963867 183.04615723 132.1015625 183.8671875 C132.58963379 184.56956543 133.07770508 185.27194336 133.58056641 185.99560547 C134.57661926 187.40214038 135.61437954 188.77961783 136.68115234 190.13330078 C138 192 138 192 138 194 C136.82566406 194.58265625 135.65132812 195.1653125 134.44140625 195.765625 C109.50250908 208.3746229 89.01950264 225.71925182 69.46704102 245.51708984 C67.98337677 247.01680305 66.4929571 248.50954273 65 250 C58.04169964 240.91032836 51.3501356 231.69467981 44.93115234 222.21606445 C40.66832486 215.93590424 36.26799608 209.7683607 31.80493164 203.62939453 C27.65541379 197.91966797 23.57509405 192.16465476 19.51708984 186.38964844 C15.91130883 181.2675721 12.24575931 176.1915474 8.5625 171.125 C4.05895673 164.92471347 -0.3210701 158.65284883 -4.625 152.3125 C-8.933847 145.9654592 -13.34370633 139.7183903 -17.91113281 133.55517578 C-21.81886334 128.27564253 -25.60720266 122.91754911 -29.38134766 117.54199219 C-33.01952921 112.36794908 -36.71769353 107.24057068 -40.4375 102.125 C-45.50767354 95.14478802 -50.4032832 88.05952788 -55.24780273 80.92138672 C-59.5474998 74.60765892 -64.00796281 68.42852954 -68.5625 62.296875 C-68.95824219 61.75869141 -69.35398438 61.22050781 -69.76171875 60.66601562 C-70.64566991 59.47672488 -71.54601587 58.299548 -72.45703125 57.13085938 C-73.71486608 55.47626948 -74.8664083 53.74206372 -76 52 C-75 49 -75 49 -73.24438477 48.08374023 C-72.48440186 47.82794189 -71.72441895 47.57214355 -70.94140625 47.30859375 C-70.0894165 47.00904785 -69.23742676 46.70950195 -68.35961914 46.40087891 C-66.97504517 45.92400635 -66.97504517 45.92400635 -65.5625 45.4375 C-39.24981277 35.87373381 -19.38294584 19.76888946 0 0 Z " fill="#7599F2" transform="translate(307,149)"/>
<path d="M0 0 C3.15241287 3.10082793 6.18357025 6.27019288 9.14526367 9.55297852 C26.91961129 29.18657979 48.74854056 45.30155382 74 54 C73.35629425 57.20131493 72.22074215 59.59692096 70.55078125 62.39453125 C70.03999023 63.2551416 69.52919922 64.11575195 69.00292969 65.00244141 C68.44508789 65.92976074 67.88724609 66.85708008 67.3125 67.8125 C66.73016602 68.78880371 66.14783203 69.76510742 65.54785156 70.77099609 C59.72310242 80.51475115 53.81301078 90.20675138 47.89501953 99.89404297 C44.483133 105.48616104 41.08597497 111.08722612 37.6875 116.6875 C36.96779176 117.87322076 36.24806513 119.05893035 35.52832031 120.24462891 C34.07659933 122.63619356 32.6249434 125.02779767 31.17333984 127.41943359 C29.38212105 130.37054408 27.59067218 133.32151479 25.79905701 136.27238464 C25.09156179 137.4376619 24.38409315 138.60295529 23.676651 139.76826477 C21.91763816 142.66563953 20.15814797 145.56272241 18.39770508 148.45922852 C15.10898247 153.87137682 11.82484321 159.28614621 8.55670166 164.71075439 C7.03152558 167.24167709 5.50376995 169.77103809 3.97583008 172.30029297 C3.25596014 173.49353048 2.53732107 174.68751167 1.82006836 175.88232422 C-2.52674473 183.12252683 -7.05107879 190.15550134 -12 197 C-15.72863772 194.24080809 -19.4211844 191.47234952 -23.015625 188.5390625 C-38.29495217 176.07626407 -55.36845495 166.11134439 -73.6328125 158.68359375 C-74.59469482 158.28865723 -75.55657715 157.8937207 -76.54760742 157.48681641 C-78.4438404 156.71627652 -80.34760115 155.96395732 -82.2590332 155.23193359 C-83.12101318 154.88340332 -83.98299316 154.53487305 -84.87109375 154.17578125 C-85.64380615 153.87583252 -86.41651855 153.57588379 -87.21264648 153.2668457 C-89 152 -89 152 -89.94702148 149.71582031 C-90.01760388 146.09757812 -88.89797964 144.42599963 -86.9765625 141.37109375 C-86.29400391 140.26830078 -85.61144531 139.16550781 -84.90820312 138.02929688 C-84.14725108 136.83195774 -83.38618003 135.63469422 -82.625 134.4375 C-81.84414718 133.18521365 -81.06487522 131.93194031 -80.28710938 130.67773438 C-78.66919662 128.0714831 -77.04454537 125.46962251 -75.41503906 122.87060547 C-72.06931133 117.52301342 -68.80699929 112.1253683 -65.54437256 106.72683716 C-63.78359865 103.81545292 -62.01645422 100.90793991 -60.25 98 C-59.54163668 96.83335154 -58.83330333 95.66668488 -58.125 94.5 C-53.87499999 87.49999999 -53.87499999 87.49999999 -52.81254578 85.75007629 C-52.10405879 84.58315596 -51.39557287 83.41623498 -50.68708801 82.24931335 C-48.91861422 79.33652253 -47.1501221 76.42374284 -45.3815918 73.51098633 C-41.8021619 67.61564574 -38.22305236 61.72011103 -34.64453125 55.82421875 C-31.10634983 49.99480847 -27.56689256 44.16617418 -24.02685547 38.33789062 C-22.03909106 35.06437641 -20.05271937 31.79001997 -18.06640625 28.515625 C-16.83600608 26.48954168 -15.6055407 24.46349797 -14.375 22.4375 C-13.55962769 21.0920813 -13.55962769 21.0920813 -12.7277832 19.71948242 C-1.89182196 1.89182196 -1.89182196 1.89182196 0 0 Z " fill="#72A2F1" transform="translate(700,181)"/>
<path d="M0 0 C0.10957031 0.90878906 0.21914063 1.81757812 0.33203125 2.75390625 C0.84782115 6.84248472 1.40952306 10.9216568 2 15 C2.23976563 16.67642578 2.23976563 16.67642578 2.484375 18.38671875 C6.64836482 42.61101089 16.61364262 66.82175758 29 88 C23.99092868 89.81687568 18.9860376 90.91123579 13.77392578 91.93603516 C12.86194427 92.11854828 11.94996277 92.3010614 11.01034546 92.48910522 C7.98938281 93.0927403 4.96736347 93.69090192 1.9453125 94.2890625 C-0.19237936 94.71510412 -2.3300022 95.14149213 -4.46755981 95.56820679 C-10.12324975 96.69628798 -15.77984374 97.81977004 -21.43664551 98.94226074 C-28.14000869 100.27331873 -34.84227309 101.60989602 -41.54469681 102.9456749 C-47.02321341 104.03726443 -52.50204712 105.1272066 -57.98162842 106.21343994 C-68.29343448 108.25857099 -78.60106818 110.32067079 -88.89941406 112.43261719 C-91.65111505 112.99400023 -94.40293134 113.55481432 -97.15478897 114.11542892 C-98.86599629 114.46582459 -100.5766377 114.81899752 -102.2866478 115.17518997 C-104.62350003 115.66193967 -106.96210255 116.13926571 -109.30126953 116.61474609 C-110.3032733 116.82777185 -110.3032733 116.82777185 -111.32551956 117.04510117 C-115.97985698 117.97802726 -120.27988873 118.11613508 -125 118 C-125.05945801 117.2972998 -125.11891602 116.59459961 -125.18017578 115.87060547 C-127.62158228 88.21482027 -133.71077316 62.98259689 -148.20629883 39.07275391 C-150.24670174 35.66022394 -151 34.09086877 -151 30 C-132.15134121 25.91887964 -113.27906228 21.98095367 -94.375 18.1640625 C-92.42108969 17.76895539 -90.46717952 17.37384757 -88.51328182 16.97867811 C-82.43089618 15.74863636 -76.34812843 14.52049764 -70.26513672 13.29345703 C-64.01325658 12.03229451 -57.76224073 10.76690802 -51.51157761 9.4997288 C-46.09244133 8.40132524 -40.67270996 7.30589286 -35.25250626 6.21276891 C-32.03643295 5.56410781 -28.82069135 4.91387655 -25.60540771 4.26131058 C-22.04886245 3.53985471 -18.49137088 2.82326269 -14.93359375 2.10791016 C-13.87922623 1.8929187 -12.8248587 1.67792725 -11.73854065 1.4564209 C-10.28906288 1.16651779 -10.28906288 1.16651779 -8.81030273 0.87075806 C-7.97280991 0.70156672 -7.13531708 0.53237537 -6.27244568 0.35805702 C-4 0 -4 0 0 0 Z " fill="#7696F3" transform="translate(323,564)"/>
<path d="M0 0 C12.0915384 0.55416574 23.92794304 2.61331819 35.85546875 4.5625 C38.05164138 4.9177732 40.24787558 5.27266595 42.44416809 5.62719727 C47.01940244 6.3669187 51.59402619 7.11027353 56.16821289 7.85644531 C62.03961397 8.81405944 67.9122401 9.76390202 73.78530407 10.71125793 C78.30743122 11.44131176 82.82901554 12.17468093 87.35042763 12.90914917 C89.51730761 13.26087217 91.68432898 13.61172519 93.85149193 13.96170044 C96.86532383 14.44906181 99.87842579 14.94070168 102.89135742 15.43359375 C103.7894664 15.57803925 104.68757538 15.72248474 105.61289978 15.87130737 C111.7711854 16.8855927 111.7711854 16.8855927 114 18 C112.65504006 22.32605673 110.99073702 26.42679269 109.18237305 30.57177734 C105.39525919 39.2687606 102.2705192 47.77463801 100 57 C99.71382812 58.10988281 99.42765625 59.21976563 99.1328125 60.36328125 C96.28732456 71.89428236 95.82677414 83.34973712 95.4375 95.1875 C95.37272461 97.0447168 95.37272461 97.0447168 95.30664062 98.93945312 C95.20169505 101.95955362 95.10007032 104.97973529 95 108 C83.31024049 107.38552588 71.81253991 105.35564813 60.26953125 103.5078125 C58.06624493 103.15753561 55.86293126 102.80743073 53.65959167 102.45748901 C49.06072796 101.72589688 44.46244343 100.99078302 39.86450195 100.25341797 C33.98849982 99.31159487 28.11080246 98.38085037 22.23257923 97.45300484 C17.68914085 96.7341989 13.14684169 96.00838917 8.6048336 95.28060532 C6.43840509 94.93454309 4.27158987 94.5908923 2.10437965 94.24975967 C-0.92796834 93.77160274 -3.95860287 93.28372141 -6.98901367 92.79345703 C-7.8728775 92.65620209 -8.75674133 92.51894714 -9.66738892 92.37753296 C-15.33516498 91.44714872 -20.60838964 89.97816314 -26 88 C-24.94097077 85.54012231 -23.87784889 83.08214009 -22.8125 80.625 C-22.37454102 79.60599609 -22.37454102 79.60599609 -21.92773438 78.56640625 C-20.25106412 74.7082618 -18.46778972 70.9554873 -16.51953125 67.2265625 C-13.67530403 61.5901267 -11.74654753 55.76831872 -9.875 49.75 C-9.52808105 48.64825439 -9.18116211 47.54650879 -8.82373047 46.41137695 C-6.42303125 38.66418474 -4.37850286 30.99949389 -3 23 C-2.71382812 21.45699219 -2.71382812 21.45699219 -2.421875 19.8828125 C-1.2452121 13.2766908 -0.52031199 6.68705568 0 0 Z " fill="#B36BDE" transform="translate(758,558)"/>
<path d="M0 0 C8.91 1.485 8.91 1.485 18 3 C26.8900267 4.05819003 35.74359796 4.23778173 44.6875 4.25 C45.7632579 4.25300613 45.7632579 4.25300613 46.86074829 4.256073 C62.14657568 4.26646734 76.93343938 2.51109344 92 0 C92 33 92 66 92 100 C85.05476364 98.84246061 78.11418837 97.6808939 71.1796875 96.46484375 C61.98163081 95.1201647 52.91754208 94.8173098 43.625 94.8125 C42.3875 94.80025391 41.15 94.78800781 39.875 94.77539062 C28.41199041 94.75729114 17.90558508 96.66798016 6.8125 99.4140625 C4 100 4 100 0 100 C0 67 0 34 0 0 Z " fill="#956CE7" transform="translate(494,754)"/>
</svg>
